HIERARCHY
ROOT Bip001_Pelvis
{
  OFFSET 34.4345 95.6767 -26.8758
  CHANNELS 6 Xposition Yposition Zposition Zrotation Xrotation Yrotation
  JOINT Bip001_Spine
  {
    OFFSET 1.4188e-005 10.2191 -0.0116013
    CHANNELS 3 Zrotation Xrotation Yrotation
    JOINT Bip001_L_Thigh
    {
      OFFSET 11.0458 -10.2192 0.0116197
      CHANNELS 3 Zrotation Xrotation Yrotation
      JOINT Bip001_L_Calf
      {
        OFFSET -0.707118 -44.0221 0.360014
        CHANNELS 3 Zrotation Xrotation Yrotation
        JOINT Bip001_L_Foot
        {
          OFFSET -0.651902 -40.5938 -3.56146
          CHANNELS 3 Zrotation Xrotation Yrotation
          JOINT Bip001_L_Toe0
          {
            OFFSET 0.0530839 -10.2181 13.1504
            CHANNELS 3 Zrotation Xrotation Yrotation
            End Site
            {
              OFFSET -1.02532e-005 0 7.55606
            }
          }
        }
      }
    }
    JOINT Bip001_R_Thigh
    {
      OFFSET -11.0458 -10.2191 0.0115893
      CHANNELS 3 Zrotation Xrotation Yrotation
      JOINT Bip001_R_Calf
      {
        OFFSET 0.706994 -44.0221 0.35984
        CHANNELS 3 Zrotation Xrotation Yrotation
        JOINT Bip001_R_Foot
        {
          OFFSET 0.651786 -40.5938 -3.5613
          CHANNELS 3 Zrotation Xrotation Yrotation
          JOINT Bip001_R_Toe0
          {
            OFFSET -0.0531479 -10.2181 13.1504
            CHANNELS 3 Zrotation Xrotation Yrotation
            End Site
            {
              OFFSET -1.02894e-005 0 7.55606
            }
          }
        }
      }
    }
    JOINT Bip001_Spine1
    {
      OFFSET 1.87041e-005 14.5736 1.08638
      CHANNELS 3 Zrotation Xrotation Yrotation
      JOINT Bip001_Spine2
      {
        OFFSET 2.24614e-005 14.5058 -1.69078
        CHANNELS 3 Zrotation Xrotation Yrotation
        JOINT Bip001_Neck
        {
          OFFSET 2.20278e-005 15.3945 -0.489414
          CHANNELS 3 Zrotation Xrotation Yrotation
          JOINT Bip001_L_Clavicle
          {
            OFFSET 6.06036 -0.000579998 0.00836775
            CHANNELS 3 Zrotation Xrotation Yrotation
            JOINT Bip001_L_UpperArm
            {
              OFFSET 11.5509 -0.0600302 0.00193952
              CHANNELS 3 Zrotation Xrotation Yrotation
              JOINT Bip001_L_Forearm
              {
                OFFSET 25.9523 0.0806089 -2.15551
                CHANNELS 3 Zrotation Xrotation Yrotation
                JOINT Bip001_L_Hand
                {
                  OFFSET 32.2475 0.153767 1.63968
                  CHANNELS 3 Zrotation Xrotation Yrotation
                  JOINT Bip001_L_Finger0
                  {
                    OFFSET 6.04639 -2.20976 5.90322
                    CHANNELS 3 Zrotation Xrotation Yrotation
                    End Site
                    {
                      OFFSET 4.22375 -1.43895 0.606485
                    }
                  }
                  JOINT Bip001_L_Finger1
                  {
                    OFFSET 11.0826 -0.704819 -0.198153
                    CHANNELS 3 Zrotation Xrotation Yrotation
                    End Site
                    {
                      OFFSET 6.20027 -0.397518 -0.0787166
                    }
                  }
                }
              }
            }
          }
          JOINT Bip001_R_Clavicle
          {
            OFFSET -6.06037 -0.000563197 0.00835105
            CHANNELS 3 Zrotation Xrotation Yrotation
            JOINT Bip001_R_UpperArm
            {
              OFFSET -11.5509 -0.0599978 0.00190698
              CHANNELS 3 Zrotation Xrotation Yrotation
              JOINT Bip001_R_Forearm
              {
                OFFSET -25.9523 0.0806822 -2.15589
                CHANNELS 3 Zrotation Xrotation Yrotation
                JOINT Bip001_R_Hand
                {
                  OFFSET -32.2475 0.153859 1.63989
                  CHANNELS 3 Zrotation Xrotation Yrotation
                  JOINT Bip001_R_Finger0
                  {
                    OFFSET -6.04641 -2.20976 5.90317
                    CHANNELS 3 Zrotation Xrotation Yrotation
                    End Site
                    {
                      OFFSET -4.22376 -1.43895 0.60647
                    }
                  }
                  JOINT Bip001_R_Finger1
                  {
                    OFFSET -11.0826 -0.704794 -0.198182
                    CHANNELS 3 Zrotation Xrotation Yrotation
                    End Site
                    {
                      OFFSET -6.20028 -0.397504 -0.0787333
                    }
                  }
                }
              }
            }
          }
          JOINT Bip001_Head
          {
            OFFSET 1.09673e-005 11.2744 2.05948
            CHANNELS 3 Zrotation Xrotation Yrotation
            End Site
            {
              OFFSET 2.89576e-005 20.8808 -2.77728e-005
            }
          }
        }
      }
    }
  }
}
MOTION
Frames:	9
Frame Time:	0.04
33.3055 95.1212 -31.8545 -3.2978 -4.56235 3.32816 -0.711714 1.71938 0.845032 11.9599 -4.93478 10.2649 -1.31274 19.0413 -5.39726 3.83282 -8.09321 0.1143 1.69534 -6.50932 -0.771345 0.044464 0.100816 1.6299 0.586978 10.9689 0.126606 -8.63248 -5.70188 -7.09986 3.13321 -10.6663 3.82605 -1.44972 3.42795 1.71253 -1.44972 3.42796 1.71253 9.1591 -15.1814 -5.48516 -28.0847 15.7677 -4.66459 -44.5959 47.1259 7.90292 9.49939 -8.8818 -30.0178 8.55153 -0.99513 -4.4508 -0 -3.18055e-015 -0 9.54166e-015 0 -3.18055e-015 -14.4136 14.6915 26.2744 26.7078 -36.7715 49.7022 -63.4929 12.6165 31.688 -8.07389 -5.20533 7.41359 -1.59028e-015 1.59028e-015 2.38542e-015 1.59028e-015 4.77083e-015 3.97569e-015 -8.36168 0.983954 -1.72891 
33.1933 95.5669 -32.2714 -3.33111 -2.94672 4.61904 -0.766718 1.5647 1.04819 12.1608 -5.3807 9.36711 -2.25953 15.6895 -5.63546 3.1301 -6.6423 0.0664575 1.45967 -6.28105 -0.545524 0.229782 0.753959 0.832989 0.29488 6.37466 -0.250772 -7.93228 -3.70821 -7.18297 3.10875 -10.5319 3.69967 -1.56479 3.11516 2.11835 -1.55928 3.11448 2.11834 9.12564 -14.309 -7.16966 -28.7153 13.9651 -2.52947 -42.5621 49.0985 5.87503 9.39152 -8.57896 -29.6346 7.86154 -1.12528 -4.22434 -6.36111e-015 -3.18055e-015 6.36111e-015 -6.36111e-015 -3.18056e-015 6.36111e-015 -18.0967 12.1551 28.7828 32.2916 -46.316 60.1199 -55.7164 8.51218 33.6702 7.821 -21.3421 -13.5225 -1.98626e-031 2.38542e-015 4.77083e-015 -2.20695e-031 3.97569e-015 3.18055e-015 -8.51651 2.90608 -3.03004 
33.297 95.9033 -32.4831 -3.32093 -2.61993 4.64778 -0.731611 1.49315 1.51258 11.9161 -4.37396 7.88587 -2.62111 12.6861 -4.57776 1.41893 -6.06959 0.0601724 0.835061 -5.80013 0.106525 0.284564 2.17755 -0.284627 -0.275164 2.68811 -0.806429 -6.87883 -2.19844 -5.75697 3.01476 -10.1274 3.44248 -1.49973 2.96626 3.03751 -1.50058 2.96559 3.04082 11.9049 -12.636 -9.63568 -31.6655 10.7389 -1.27809 -42.7606 50.388 6.29974 11.2315 -3.56753 -29.0259 7.06256 -0.90126 -4.93529 -3.18055e-015 0 3.18055e-015 -0 0 1.59028e-015 -28.545 6.13006 24.4783 27.2252 -45.1259 59.7594 -40.6712 5.53845 24.6884 8.39487 -9.31808 13.3363 0 0 -7.95139e-016 0 0 -0 -11.1922 3.10492 -4.11213 
33.2145 96.0508 -32.8401 -3.92713 -1.50494 4.58515 -0.74963 1.20277 1.67094 12.5758 -5.19836 8.47012 -2.72896 12.1355 -5.05735 0.93344 -5.72781 0.0593028 0.67921 -5.65561 0.306809 1.0461 1.59979 0.0542514 -0.695789 1.61353 -0.843841 -6.20961 -1.61327 -5.76032 2.88439 -9.4805 2.88833 -1.5241 2.38296 3.36747 -1.53532 2.38289 3.36326 16.1032 -10.8292 -11.8305 -35.3476 7.10263 -0.83247 -43.4645 53.455 7.54667 12.8012 -0.0719205 -26.9597 5.31923 -0.164837 -5.40669 3.18055e-015 -9.54166e-015 -1.59028e-015 3.18055e-015 -6.36111e-015 1.59028e-015 -39.6699 0.255191 18.6074 0.599208 -28.3822 45.3854 -39.4787 -6.67164 15.6144 -2.77479 -6.52541 12.8895 -3.18055e-015 6.95746e-016 2.60905e-015 -3.18055e-015 9.93924e-016 4.09993e-015 -13.7371 1.30919 -4.85087 
33.0669 96.0867 -33.1771 -4.22292 -0.924381 4.97639 -0.772464 1.23965 1.43833 12.8203 -6.2012 8.49613 -2.49899 12.1387 -4.19799 0.229373 -5.61486 0.0773934 0.873245 -4.60365 -0.280994 1.29971 0.921608 0.144687 -0.617845 1.341 -0.935978 -6.0083 -1.53653 -5.7509 2.74498 -9.06725 2.74359 -1.56129 2.45943 2.89571 -1.55986 2.45944 2.89421 17.9157 -11.7192 -12.7044 -36.8864 6.64964 1.1471 -44.4369 57.3514 7.18507 14.5138 1.94965 -23.6017 3.27902 0.40178 -5.08768 3.18055e-015 0 -7.95139e-016 -0 -3.18056e-015 -0 -39.2983 0.469303 21.9479 -5.74656 -27.3149 48.7834 -45.3383 -3.53214 17.1911 4.07047 -10.7575 14.3115 3.18055e-015 -7.95139e-016 -0 3.18055e-015 -1.59028e-015 -2.78299e-015 -13.8937 1.93942 -5.21773 
33.0471 96.0807 -33.3902 -3.89835 -1.05272 4.76037 -0.55494 1.67302 1.15822 11.726 -6.41161 9.74182 -1.34294 11.7392 -4.90294 1.00124 -4.57959 0.0592801 1.36685 -4.99089 -0.847762 0.529832 0.447839 -0.522667 -0.312723 1.45498 -0.865945 -5.73116 -1.70221 -4.73029 2.61727 -8.69157 2.62584 -1.14434 3.33439 2.33406 -1.14435 3.3344 2.33407 14.8765 -15.7136 -12.1296 -37.0834 10.4779 4.34739 -42.3524 57.1856 3.96342 15.8096 4.98446 -21.6019 2.8012 1.12963 -4.20798 4.41391e-032 -3.18055e-015 7.95139e-016 3.18055e-015 -4.77083e-015 7.95139e-016 -34.6354 5.63654 27.9349 8.44727 -33.3081 66.2926 -47.7634 -0.896239 28.3147 10.5621 -12.0785 12.99 6.36111e-015 -6.36111e-015 4.77083e-015 6.36111e-015 -3.18056e-015 -3.18055e-015 -11.3025 4.57432 -6.05739 
32.649 96.0499 -33.6652 -4.20437 -1.35046 4.24039 -0.185806 1.92052 1.29334 12.1195 -6.69217 10.7094 -1.46203 12.3033 -5.54187 1.11251 -4.619 0.0596404 1.43345 -5.09023 -0.863245 0.743292 0.2154 0.100646 -0.354852 1.42687 -1.06499 -5.73495 -1.57563 -4.86299 2.5209 -8.41817 2.55532 -0.41515 3.83633 2.59385 -0.415282 3.8363 2.59502 12.7955 -17.5303 -12.3696 -36.865 12.3256 5.28899 -41.1957 55.4326 1.3197 14.6563 5.09783 -21.2432 3.88609 1.57892 -4.15999 -3.18055e-015 3.18055e-015 -1.59028e-015 -3.18055e-015 1.59028e-015 -7.95139e-016 -29.8786 9.09227 31.8654 26.3769 -28.0878 82.4401 -54.3437 5.86056 43.9455 11.4208 -15.1321 5.58464 1.59028e-015 3.18055e-015 -0 3.18055e-015 0 7.95139e-015 -10.3028 4.84836 -7.02385 
32.5549 96.0269 -33.8494 -3.78645 -1.34144 4.81971 -0.161277 1.96923 1.33879 11.6227 -6.86122 9.67192 -1.49326 11.9368 -4.99482 0.885843 -4.44619 0.05628 1.47171 -5.03979 -0.928173 0.275223 0.151051 -1.433 -0.228464 1.47148 -0.687663 -5.70323 -1.75731 -4.33821 2.49917 -8.34655 2.52507 -0.36983 3.93408 2.68637 -0.369317 3.93412 2.68419 12.6748 -17.761 -12.8903 -36.9788 12.4038 5.05503 -41.5825 54.6317 1.03934 13.7352 2.2837 -22.356 4.09391 0.985113 -4.70606 3.18055e-015 -3.18055e-015 -0 3.18055e-015 0 7.95139e-016 -25.5049 11.3398 34.3256 32.1365 -18.2815 85.2344 -62.7297 6.57833 54.8355 9.69835 -19.8121 -0.695577 1.59028e-015 0 -1.59028e-015 1.59028e-015 3.18056e-015 -1.59028e-015 -10.2587 3.85631 -7.63973 
32.4696 96.0146 -33.9941 -3.63708 -0.878812 5.04113 -0.223792 1.91581 1.3113 11.3332 -7.47184 10.6317 -0.939932 12.0028 -6.12346 1.17048 -4.13631 0.0434518 1.66116 -5.16014 -1.05971 0.0858517 -0.434954 -1.33095 -0.000221299 1.74332 -0.643674 -5.91859 -1.82348 -4.57117 2.46616 -8.24052 2.48353 -0.491456 3.82556 2.63721 -0.491358 3.8255 2.6341 13.2028 -17.2911 -12.8325 -36.7652 11.9065 5.07343 -42.147 53.4837 1.01962 13.8625 -0.051812 -24.168 4.17353 0.167658 -5.08945 -3.18055e-015 3.18055e-015 -1.59028e-015 8.82782e-032 3.18056e-015 -1.59028e-015 -20.7271 13.7165 37.5739 37.4611 -10.7701 80.4829 -64.3324 2.16883 66.3548 7.19551 -21.5833 -2.04521 -3.97569e-015 -3.18055e-015 -1.59028e-015 -1.59028e-015 -3.18056e-015 -1.59028e-015 -10.2682 3.22437 -7.52453 
